<svg xmlns="http://www.w3.org/2000/svg" width="414.831" height="56.015" viewBox="0 0 414.831 56.015"><defs><style>.a{fill:#13100d;}</style></defs><g transform="translate(-128.403 -255.276)"><path class="a" d="M181.649,301.4a22.129,22.129,0,0,1-3.27,3.835,20.794,20.794,0,0,1-4.436,3.157,24.92,24.92,0,0,1-5.564,2.143,26.466,26.466,0,0,1-6.654.789,28.942,28.942,0,0,1-11.128-2.105,25.989,25.989,0,0,1-14.549-14.662,29.606,29.606,0,0,1-2.068-11.2,29.145,29.145,0,0,1,2.105-11.2,26.425,26.425,0,0,1,14.624-14.662,28.475,28.475,0,0,1,11.015-2.1,27.773,27.773,0,0,1,11.053,2.293,22.182,22.182,0,0,1,4.512,2.632,15.373,15.373,0,0,1,3.383,3.5l-4.511,3.309a13.465,13.465,0,0,0-2.218-2.557,15.083,15.083,0,0,0-3.271-2.256,20.467,20.467,0,0,0-4.1-1.579,18.183,18.183,0,0,0-4.775-.6,22.027,22.027,0,0,0-9.286,1.88,20.878,20.878,0,0,0-6.955,5.075,22.175,22.175,0,0,0-4.361,7.406,26.18,26.18,0,0,0-1.5,8.872,25.606,25.606,0,0,0,1.541,8.873,22.707,22.707,0,0,0,4.4,7.406,20.878,20.878,0,0,0,6.955,5.075,21.849,21.849,0,0,0,9.21,1.879,20.842,20.842,0,0,0,8.722-1.879,16.535,16.535,0,0,0,6.918-6.015l4.21,2.707Z" transform="translate(-5.577 -0.039)"/><path class="a" d="M270.176,283.359a29.153,29.153,0,0,1-2.1,11.2,26.42,26.42,0,0,1-14.624,14.662,29.867,29.867,0,0,1-22.03,0,26.415,26.415,0,0,1-14.624-14.662,30.859,30.859,0,0,1,0-22.406,26.42,26.42,0,0,1,14.624-14.662,29.876,29.876,0,0,1,22.03,0,26.425,26.425,0,0,1,14.624,14.662,29.157,29.157,0,0,1,2.1,11.2Zm-5.714,0a26.179,26.179,0,0,0-1.5-8.872,22.167,22.167,0,0,0-4.361-7.406,20.876,20.876,0,0,0-6.955-5.075,23.506,23.506,0,0,0-18.421,0,20.883,20.883,0,0,0-6.955,5.075,22.166,22.166,0,0,0-4.361,7.406,26.924,26.924,0,0,0,0,17.745,21.766,21.766,0,0,0,4.361,7.368,21.139,21.139,0,0,0,6.955,5.038,23.513,23.513,0,0,0,18.421,0A21.132,21.132,0,0,0,258.6,299.6a21.767,21.767,0,0,0,4.361-7.368,26.182,26.182,0,0,0,1.5-8.873Z" transform="translate(-33.052 -0.039)"/><path class="a" d="M321.328,310.674h-5.414V257.442h15.639a33.074,33.074,0,0,1,7.256.751,16.36,16.36,0,0,1,5.789,2.444,11.528,11.528,0,0,1,3.8,4.4,14.685,14.685,0,0,1,1.353,6.616,13.03,13.03,0,0,1-3.91,9.512,13.712,13.712,0,0,1-4.286,2.819,18.653,18.653,0,0,1-5.413,1.353L351.7,310.674h-6.616L330.35,285.787h-9.022v24.887Zm0-29.548h9.4q6.542,0,10.075-2.369a7.983,7.983,0,0,0,3.534-7.106,9.212,9.212,0,0,0-.977-4.436,8,8,0,0,0-2.707-2.932,12.325,12.325,0,0,0-4.21-1.654,26.5,26.5,0,0,0-5.489-.526h-9.624v19.023Z" transform="translate(-67.512 -0.737)"/><path class="a" d="M389.61,305.863h28.5v4.812H384.2V257.442H417.2v4.812H389.61V280.6H415.4v4.736H389.61v20.527Z" transform="translate(-90.757 -0.737)"/><path class="a" d="M464.388,273.491h-1.574V262.658h1.574v10.832Zm.325-15a1.026,1.026,0,0,1-.348.8,1.089,1.089,0,0,1-1.528,0,1.092,1.092,0,0,1,0-1.6,1.089,1.089,0,0,1,1.528,0,1.027,1.027,0,0,1,.348.8Z" transform="translate(-117.409 -0.717)"/><path class="a" d="M473.084,265.239c.03.294.054.617.069.972s.023.648.023.88h.046a3.561,3.561,0,0,1,1.5-1.54,4.393,4.393,0,0,1,2.2-.59,3.807,3.807,0,0,1,3.09,1.227,4.873,4.873,0,0,1,1.03,3.24v6.643h-1.574v-5.995a7.956,7.956,0,0,0-.139-1.551,3.254,3.254,0,0,0-.475-1.192,2.269,2.269,0,0,0-.9-.776,3.238,3.238,0,0,0-1.424-.278,3.046,3.046,0,0,0-1.215.255,3,3,0,0,0-1.053.776,3.876,3.876,0,0,0-.741,1.319,5.766,5.766,0,0,0-.278,1.886v5.555h-1.574v-8.448q0-.44-.023-1.134t-.069-1.25Z" transform="translate(-120.503 -3.297)"/><path class="a" d="M493.471,265.239q.046.44.069.972t.024.88h.046a3.56,3.56,0,0,1,1.5-1.54,4.393,4.393,0,0,1,2.2-.59,3.805,3.805,0,0,1,3.089,1.227,4.874,4.874,0,0,1,1.03,3.24v6.643H499.86v-5.995a7.956,7.956,0,0,0-.139-1.551,3.242,3.242,0,0,0-.474-1.192,2.275,2.275,0,0,0-.9-.776,3.233,3.233,0,0,0-1.423-.278,3.041,3.041,0,0,0-1.215.255,2.994,2.994,0,0,0-1.053.776,3.875,3.875,0,0,0-.741,1.319,5.746,5.746,0,0,0-.278,1.886v5.555H492.06v-8.448q0-.44-.024-1.134t-.069-1.25Z" transform="translate(-127.444 -3.297)"/><path class="a" d="M522.853,270.655a5.905,5.905,0,0,1-.428,2.268,5.34,5.34,0,0,1-3.021,3,6.533,6.533,0,0,1-4.652,0,5.341,5.341,0,0,1-3.021-3,6.223,6.223,0,0,1,0-4.537,5.453,5.453,0,0,1,1.192-1.805,5.4,5.4,0,0,1,1.829-1.193,6.535,6.535,0,0,1,4.652,0,5.4,5.4,0,0,1,1.829,1.193,5.46,5.46,0,0,1,1.192,1.805,5.9,5.9,0,0,1,.428,2.268Zm-1.667,0a4.966,4.966,0,0,0-.289-1.7,4.18,4.18,0,0,0-.822-1.388,3.887,3.887,0,0,0-1.3-.937,4.092,4.092,0,0,0-1.713-.348,4.012,4.012,0,0,0-1.7.348,3.913,3.913,0,0,0-1.285.937,4.177,4.177,0,0,0-.822,1.388,5.157,5.157,0,0,0,0,3.4,4.18,4.18,0,0,0,.822,1.389,3.78,3.78,0,0,0,1.285.925,4.135,4.135,0,0,0,1.7.336,4.219,4.219,0,0,0,1.713-.336,3.757,3.757,0,0,0,1.3-.925,4.183,4.183,0,0,0,.822-1.389,4.961,4.961,0,0,0,.289-1.7Z" transform="translate(-134.026 -3.297)"/><path class="a" d="M537.5,276.214h-1.736l-4.421-10.832H533.1l3.518,9.166h.046l3.541-9.166h1.69l-4.4,10.832Z" transform="translate(-140.848 -3.44)"/><path class="a" d="M557.473,269.081a2.756,2.756,0,0,0-.741-2.106,3.036,3.036,0,0,0-2.153-.695,4.645,4.645,0,0,0-1.805.348,4.327,4.327,0,0,0-1.412.925l-.879-1.041a5.189,5.189,0,0,1,1.77-1.111,6.649,6.649,0,0,1,2.489-.44,5.382,5.382,0,0,1,1.643.243,3.9,3.9,0,0,1,1.343.729,3.294,3.294,0,0,1,.9,1.227,4.3,4.3,0,0,1,.324,1.736v4.745q0,.624.046,1.3a9.164,9.164,0,0,0,.139,1.134h-1.412q-.07-.393-.116-.856a8.995,8.995,0,0,1-.046-.9h-.046a4.571,4.571,0,0,1-1.678,1.562,4.946,4.946,0,0,1-2.257.474,5.019,5.019,0,0,1-1.284-.173,3.587,3.587,0,0,1-1.2-.567,3.2,3.2,0,0,1-.9-1.018,3.026,3.026,0,0,1-.359-1.528,2.906,2.906,0,0,1,.637-1.979,3.815,3.815,0,0,1,1.7-1.088,10,10,0,0,1,2.442-.463q1.377-.1,2.859-.1v-.348Zm-.463,1.574q-.973,0-1.956.081a8.489,8.489,0,0,0-1.783.324,3.367,3.367,0,0,0-1.307.706,1.577,1.577,0,0,0-.509,1.227,1.971,1.971,0,0,0,.22.972,1.8,1.8,0,0,0,.59.637,2.5,2.5,0,0,0,.822.347,4.026,4.026,0,0,0,.914.1,3.6,3.6,0,0,0,1.481-.289,3.135,3.135,0,0,0,1.088-.788,3.469,3.469,0,0,0,.671-1.146,4.024,4.024,0,0,0,.232-1.365v-.81Z" transform="translate(-147.143 -3.297)"/><path class="a" d="M573.307,265.124h-3.055v6.319a3.591,3.591,0,0,0,.116,1,1.414,1.414,0,0,0,.335.613,1.152,1.152,0,0,0,.521.3,2.481,2.481,0,0,0,.648.081,2.73,2.73,0,0,0,.683-.093,3.441,3.441,0,0,0,.683-.255l.069,1.366a4.71,4.71,0,0,1-.868.243,5.563,5.563,0,0,1-.984.081,4,4,0,0,1-.926-.116,2.345,2.345,0,0,1-.9-.439,2.4,2.4,0,0,1-.683-.88,3.4,3.4,0,0,1-.266-1.458v-6.759h-2.245v-1.319h2.245V260.75h1.574v3.055h3.055v1.319Z" transform="translate(-152.794 -1.863)"/><path class="a" d="M582.017,273.491h-1.574V262.658h1.574v10.832Zm.324-15a1.026,1.026,0,0,1-.348.8,1.089,1.089,0,0,1-1.528,0,1.092,1.092,0,0,1,0-1.6,1.089,1.089,0,0,1,1.528,0,1.027,1.027,0,0,1,.348.8Z" transform="translate(-157.453 -0.717)"/><path class="a" d="M599.7,270.655a5.9,5.9,0,0,1-.428,2.268,5.345,5.345,0,0,1-3.021,3,6.533,6.533,0,0,1-4.652,0,5.4,5.4,0,0,1-1.829-1.192,5.459,5.459,0,0,1-1.192-1.805,6.224,6.224,0,0,1,0-4.537,5.458,5.458,0,0,1,1.192-1.805,5.393,5.393,0,0,1,1.829-1.193,6.535,6.535,0,0,1,4.652,0,5.4,5.4,0,0,1,1.828,1.193,5.456,5.456,0,0,1,1.192,1.805,5.9,5.9,0,0,1,.428,2.268Zm-1.667,0a4.97,4.97,0,0,0-.289-1.7,4.178,4.178,0,0,0-.822-1.388,3.885,3.885,0,0,0-1.3-.937,4.093,4.093,0,0,0-1.713-.348,4.011,4.011,0,0,0-1.7.348,3.913,3.913,0,0,0-1.285.937,4.178,4.178,0,0,0-.822,1.388,5.155,5.155,0,0,0,0,3.4,4.181,4.181,0,0,0,.822,1.389,3.78,3.78,0,0,0,1.285.925,4.135,4.135,0,0,0,1.7.336,4.219,4.219,0,0,0,1.713-.336,3.756,3.756,0,0,0,1.3-.925,4.182,4.182,0,0,0,.822-1.389,4.965,4.965,0,0,0,.289-1.7Z" transform="translate(-160.188 -3.297)"/><path class="a" d="M612.154,265.239q.046.44.069.972c.016.355.023.648.023.88h.047a3.557,3.557,0,0,1,1.5-1.54,4.391,4.391,0,0,1,2.2-.59,3.806,3.806,0,0,1,3.09,1.227,4.873,4.873,0,0,1,1.03,3.24v6.643h-1.574v-5.995a7.958,7.958,0,0,0-.139-1.551,3.229,3.229,0,0,0-.475-1.192,2.269,2.269,0,0,0-.9-.776,3.233,3.233,0,0,0-1.423-.278,3.046,3.046,0,0,0-1.215.255,3,3,0,0,0-1.053.776,3.87,3.87,0,0,0-.741,1.319,5.753,5.753,0,0,0-.278,1.886v5.555h-1.574v-8.448q0-.44-.023-1.134t-.069-1.25Z" transform="translate(-167.846 -3.297)"/><path class="a" d="M641.393,273.491h-1.574V262.658h1.574v10.832Zm.325-15a1.026,1.026,0,0,1-.348.8,1.089,1.089,0,0,1-1.528,0,1.092,1.092,0,0,1,0-1.6,1.089,1.089,0,0,1,1.528,0,1.027,1.027,0,0,1,.348.8Z" transform="translate(-177.666 -0.717)"/><path class="a" d="M650.089,265.239c.03.294.054.617.069.972s.023.648.023.88h.046a3.561,3.561,0,0,1,1.5-1.54,4.393,4.393,0,0,1,2.2-.59,3.807,3.807,0,0,1,3.09,1.227,4.874,4.874,0,0,1,1.03,3.24v6.643h-1.574v-5.995a7.954,7.954,0,0,0-.138-1.551,3.257,3.257,0,0,0-.475-1.192,2.269,2.269,0,0,0-.9-.776,3.239,3.239,0,0,0-1.424-.278,3.046,3.046,0,0,0-1.215.255,2.994,2.994,0,0,0-1.053.776,3.873,3.873,0,0,0-.741,1.319,5.762,5.762,0,0,0-.278,1.886v5.555h-1.574v-8.448q0-.44-.023-1.134t-.069-1.25Z" transform="translate(-180.76 -3.297)"/><path class="a" d="M677.329,265.382l2.616,8.8h.046l2.917-8.8h1.527l2.963,8.8h.046l2.592-8.8H691.7l-3.426,10.832h-1.713l-2.893-8.772h-.046l-2.847,8.772h-1.713l-3.425-10.832Z" transform="translate(-189.97 -3.44)"/><path class="a" d="M714.421,270.655a5.906,5.906,0,0,1-.428,2.268,5.342,5.342,0,0,1-3.02,3,6.211,6.211,0,0,1-2.338.428,6.145,6.145,0,0,1-2.315-.428,5.345,5.345,0,0,1-3.021-3,6.223,6.223,0,0,1,0-4.537,5.458,5.458,0,0,1,1.192-1.805,5.4,5.4,0,0,1,1.828-1.193,6.146,6.146,0,0,1,2.315-.428,6.212,6.212,0,0,1,2.338.428,5.4,5.4,0,0,1,1.828,1.193,5.456,5.456,0,0,1,1.192,1.805,5.9,5.9,0,0,1,.428,2.268Zm-1.666,0a4.966,4.966,0,0,0-.29-1.7,4.166,4.166,0,0,0-.822-1.388,3.885,3.885,0,0,0-1.3-.937,4.093,4.093,0,0,0-1.713-.348,4.013,4.013,0,0,0-1.7.348,3.922,3.922,0,0,0-1.285.937,4.164,4.164,0,0,0-.821,1.388,5.142,5.142,0,0,0,0,3.4,4.168,4.168,0,0,0,.821,1.389,3.789,3.789,0,0,0,1.285.925,4.136,4.136,0,0,0,1.7.336,4.219,4.219,0,0,0,1.713-.336,3.755,3.755,0,0,0,1.3-.925,4.169,4.169,0,0,0,.822-1.389,4.961,4.961,0,0,0,.29-1.7Z" transform="translate(-199.24 -3.297)"/><path class="a" d="M735.863,270.655a5.906,5.906,0,0,1-.429,2.268,5.343,5.343,0,0,1-3.02,3,6.209,6.209,0,0,1-2.338.428,6.145,6.145,0,0,1-2.315-.428,5.4,5.4,0,0,1-1.828-1.192,5.46,5.46,0,0,1-1.192-1.805,6.225,6.225,0,0,1,0-4.537,5.459,5.459,0,0,1,1.192-1.805,5.4,5.4,0,0,1,1.828-1.193,6.146,6.146,0,0,1,2.315-.428,6.21,6.21,0,0,1,2.338.428,5.348,5.348,0,0,1,3.02,3,5.9,5.9,0,0,1,.429,2.268Zm-1.667,0a4.95,4.95,0,0,0-.29-1.7,4.163,4.163,0,0,0-.821-1.388,3.894,3.894,0,0,0-1.3-.937,4.09,4.09,0,0,0-1.712-.348,4.014,4.014,0,0,0-1.7.348,3.919,3.919,0,0,0-1.284.937,4.166,4.166,0,0,0-.822,1.388,5.145,5.145,0,0,0,0,3.4,4.169,4.169,0,0,0,.822,1.389,3.785,3.785,0,0,0,1.284.925,4.138,4.138,0,0,0,1.7.336,4.216,4.216,0,0,0,1.712-.336,3.764,3.764,0,0,0,1.3-.925,4.166,4.166,0,0,0,.821-1.389,4.945,4.945,0,0,0,.29-1.7Z" transform="translate(-206.54 -3.297)"/><path class="a" d="M755.452,270.946a4.444,4.444,0,0,1-1.806,1.574,5.245,5.245,0,0,1-2.291.532,5.813,5.813,0,0,1-2.3-.439,5.241,5.241,0,0,1-1.759-1.2,5.437,5.437,0,0,1-1.135-1.805,6.429,6.429,0,0,1,0-4.49,5.429,5.429,0,0,1,1.135-1.805,5.23,5.23,0,0,1,1.759-1.2,5.8,5.8,0,0,1,2.3-.44,5.151,5.151,0,0,1,2.291.544,4.472,4.472,0,0,1,1.806,1.609h.046v-8.541h1.574v17.5H755.5v-1.828Zm-8.032-3.587a5.141,5.141,0,0,0,.278,1.7,4.122,4.122,0,0,0,.8,1.389,3.644,3.644,0,0,0,1.285.925,4.277,4.277,0,0,0,1.736.336,4.086,4.086,0,0,0,2.986-1.25,4.153,4.153,0,0,0,.868-1.377,4.923,4.923,0,0,0,0-3.449,4.28,4.28,0,0,0-.868-1.388,4,4,0,0,0-1.319-.926,4.1,4.1,0,0,0-1.667-.336,4.15,4.15,0,0,0-1.736.348,3.765,3.765,0,0,0-1.285.937,4.119,4.119,0,0,0-.8,1.388,5.145,5.145,0,0,0-.278,1.7Z" transform="translate(-213.839 0)"/></g></svg>