<svg xmlns="http://www.w3.org/2000/svg" width="23.309" height="23.309" viewBox="0 0 23.309 23.309"><g transform="translate(-0.5 79.224)"><g transform="translate(0.5 -79.224)"><path d="M16.525-79.224H7.784A7.285,7.285,0,0,0,.5-71.94V-63.2a7.285,7.285,0,0,0,7.284,7.284h8.741A7.285,7.285,0,0,0,23.809-63.2V-71.94A7.285,7.285,0,0,0,16.525-79.224Zm5.1,16.025a5.1,5.1,0,0,1-5.1,5.1H7.784a5.1,5.1,0,0,1-5.1-5.1V-71.94a5.1,5.1,0,0,1,5.1-5.1h8.741a5.1,5.1,0,0,1,5.1,5.1Z" transform="translate(-0.5 79.224)"/></g><g transform="translate(6.327 -73.397)"><path d="M134.327,48.776a5.827,5.827,0,1,0,5.827,5.827A5.828,5.828,0,0,0,134.327,48.776Zm0,9.469a3.642,3.642,0,1,1,3.642-3.642A3.647,3.647,0,0,1,134.327,58.245Z" transform="translate(-128.5 -48.776)"/></g><g transform="translate(17.642 -74.61)"><circle cx="0.776" cy="0.776" r="0.776"/></g></g></svg>